<!--?xml version="1.0" standalone="no"?-->

<svg xmlns="http://www.w3.org/2000/svg" width="300.000000pt" height="300.000000pt" viewBox="0 0 300.000000 300.000000" preserveAspectRatio="xMidYMid meet">
<g transform="translate(0.000000,300.000000) scale(0.100000,-0.100000)" fill="#070707" stroke="none">
<path d="M1459 2801 c-14 -5 -58 -25 -98 -45 -122 -61 -230 -153 -319 -271
l-45 -60 44 41 c91 84 211 156 282 169 l37 7 0 -436 0 -436 -27 0 c-70 2 -293
34 -413 62 -108 24 -120 30 -114 61 3 12 -5 0 -17 -28 -16 -37 -22 -72 -23
-134 l-1 -84 80 -23 c92 -26 228 -51 369 -68 l98 -11 18 -50 c37 -105 52 -162
57 -217 3 -32 11 -62 17 -66 26 -21 102 -31 142 -20 55 16 64 26 64 65 0 36
45 213 62 246 8 16 11 16 40 1 42 -22 146 -30 192 -14 32 10 36 15 36 45 0 37
1 37 85 55 28 6 88 22 133 37 l84 27 -4 80 c-3 58 -10 94 -26 126 -12 25 -20
37 -18 28 3 -10 0 -20 -5 -24 -47 -29 -498 -104 -536 -90 -10 4 -13 91 -13
437 l0 431 37 -7 c72 -13 192 -86 282 -169 l44 -41 -32 45 c-43 62 -145 165
-209 212 -66 49 -197 115 -242 122 -19 3 -46 1 -61 -3z" id="node1" class="node" style="position: relative; fill: rgb(255, 255, 255);" fill="#ffffff"></path>
<path d="M430 2765 c-17 -20 -8 -194 15 -280 33 -127 116 -263 203 -332 55
-44 183 -114 217 -119 35 -5 43 -1 75 45 18 27 24 51 28 112 4 73 3 79 -21
103 -14 14 -37 26 -50 26 -56 0 -174 61 -242 127 -81 77 -136 157 -185 271
-23 55 -28 61 -40 47z" id="node2" class="node" style="position: relative; fill: rgb(255, 255, 255);" fill="#ffffff"></path>
<path d="M2550 2768 c0 -25 -86 -186 -130 -243 -79 -103 -198 -182 -309 -206
-66 -14 -81 -36 -81 -114 1 -91 45 -175 93 -175 26 0 147 62 209 107 48 34
128 129 164 193 52 91 84 227 84 356 0 52 -4 75 -15 84 -12 10 -15 10 -15 -2z" id="node3" class="node" style="position: relative; fill: rgb(255, 255, 255);" fill="#ffffff"></path>
<path d="M755 1597 c-4 -23 -9 -107 -13 -186 -5 -102 -11 -146 -20 -149 -7 -2
-28 12 -47 31 l-35 35 0 -27 c0 -30 31 -118 61 -174 27 -50 20 -71 -18 -55
-15 7 -42 23 -59 35 -17 13 -34 23 -38 23 -11 0 4 -91 22 -128 8 -19 32 -45
54 -58 46 -29 48 -43 9 -66 -34 -19 -47 -65 -36 -124 l6 -37 30 35 c47 58 106
61 134 8 28 -55 12 -101 -40 -112 -18 -4 -17 -6 8 -18 26 -12 36 -11 98 10 74
25 111 22 132 -11 14 -22 1 -57 -15 -41 -22 22 -40 14 -36 -15 3 -30 41 -56
94 -68 31 -6 32 -6 45 51 8 32 19 59 26 61 16 6 23 -276 7 -297 -6 -8 -14 -23
-17 -32 -5 -14 -1 -16 30 -11 l35 6 -7 -50 c-4 -33 -3 -53 4 -58 6 -3 11 2 11
13 0 10 9 27 19 36 18 17 20 16 45 -21 17 -25 26 -51 26 -78 1 -37 2 -39 15
-21 19 25 19 93 0 130 -20 37 -20 36 16 36 34 0 69 15 69 30 0 6 -10 10 -23
10 -48 0 -52 14 -47 164 4 116 8 141 22 149 24 16 67 -10 86 -51 15 -31 15
-34 -16 -93 -18 -33 -30 -65 -27 -69 5 -8 63 -40 72 -40 2 0 1 10 -2 23 -6 25
26 84 51 94 19 7 61 -14 69 -35 3 -8 -2 -26 -11 -40 -16 -25 -16 -25 12 -18
51 12 82 27 89 43 3 9 -4 34 -15 56 -24 46 -29 90 -11 111 16 18 59 26 70 12
5 -6 11 -74 12 -150 2 -147 0 -156 -48 -156 -13 0 -23 -4 -23 -10 0 -15 35
-30 69 -30 36 0 36 1 16 -36 -19 -37 -19 -105 0 -130 13 -18 14 -16 15 21 0
27 9 53 26 78 25 37 27 38 45 21 10 -9 19 -26 19 -36 0 -11 5 -16 11 -13 7 5
8 25 4 58 l-7 50 35 -6 c38 -6 39 -1 13 48 -16 29 -9 298 7 292 16 -5 36 -63
36 -104 1 -27 5 -33 24 -33 32 1 140 38 149 53 13 21 9 37 -10 37 -27 0 -55
35 -47 59 3 11 25 29 49 40 77 38 106 25 106 -49 l1 -45 29 33 c25 27 30 41
30 83 0 29 -7 60 -16 75 -16 23 -16 26 2 39 10 8 26 14 34 15 20 0 80 -37 80
-50 0 -5 5 -10 11 -10 8 0 10 17 7 51 -4 39 -11 56 -28 69 -29 22 -21 62 15
78 36 17 43 15 70 -14 l25 -27 0 34 c0 58 -31 95 -97 116 -67 20 -78 30 -58
58 36 50 81 177 69 196 -2 4 -20 -9 -39 -28 -19 -19 -40 -33 -47 -31 -9 3 -15
48 -20 154 -9 191 -14 218 -36 209 -9 -3 -29 -9 -43 -12 l-26 -5 0 -121 c0
-128 -7 -163 -60 -275 -32 -70 -55 -181 -51 -253 2 -38 -2 -62 -12 -74 -24
-28 -97 -75 -129 -81 l-30 -6 -3 138 -3 139 -70 25 c-66 23 -81 24 -295 24
-214 0 -229 -1 -295 -24 l-70 -25 -3 -137 c-3 -158 -2 -157 -86 -108 -79 45
-89 60 -87 129 2 75 -20 184 -52 253 -53 112 -60 147 -60 275 l0 122 -26 10
c-61 22 -60 22 -66 -22z m878 -637 c30 -9 42 -19 53 -47 19 -45 15 -142 -7
-156 -21 -13 -125 0 -143 19 -8 8 -24 14 -36 14 -12 0 -28 -6 -36 -14 -18 -19
-122 -32 -143 -19 -21 13 -26 94 -10 150 11 41 13 42 68 53 31 6 61 13 66 15
17 8 148 -3 188 -15z" id="node4" class="node" style="position: relative; fill: rgb(255, 255, 255);" fill="#ffffff"></path>
</g>
<g transform="translate(0.000000,300.000000) scale(0.100000,-0.100000)" fill="#A4A4A4" stroke="none">


</g>
</svg>